<?xml version="1.0" encoding="utf-8"?>
<!-- Generator: Adobe Illustrator 22.1.0, SVG Export Plug-In . SVG Version: 6.00 Build 0)  -->
<svg version="1.1" id="Ebene_1" xmlns="http://www.w3.org/2000/svg" xmlns:xlink="http://www.w3.org/1999/xlink" x="0px" y="0px"
	 viewBox="0 0 496 512" style="enable-background:new 0 0 496 512;" xml:space="preserve">
<style type="text/css">
	.st0{fill:#FFFFFF;}
</style>
<path class="st0" d="M248,8C111,8,0,119,0,256s111,248,248,248s248-111,248-248S385,8,248,8z M389.4,397.4
	c-37.8,37.8-88,58.6-141.4,58.6s-103.6-20.8-141.4-58.6S48,309.4,48,256s20.8-103.6,58.6-141.4S194.6,56,248,56
	s103.6,20.8,141.4,58.6S448,202.6,448,256S427.2,359.6,389.4,397.4z M328,224c17.7,0,32-14.3,32-32s-14.3-32-32-32s-32,14.3-32,32
	S310.3,224,328,224z M168,224c17.7,0,32-14.3,32-32s-14.3-32-32-32s-32,14.3-32,32S150.3,224,168,224z M362.4,288H133.6
	c-8.2,0-14.5,7-13.5,15c7.5,59.2,58.9,105,121.1,105h13.6c62.2,0,113.6-45.8,121.1-105C376.9,295,370.6,288,362.4,288L362.4,288z"/>
</svg>
